<svg width="301" height="433" viewBox="0 0 301 433" fill="none" xmlns="http://www.w3.org/2000/svg">
<path d="M40.2955 188.685C43.3718 191.986 48.6248 196.89 51.9855 200.203C61.8888 209.988 71.8628 219.701 81.9068 229.342L142.63 289.543L167.055 313.638C170.746 317.275 174.559 321.255 178.381 324.703C193.965 338.758 201.119 357.953 195.582 378.63C191.876 392.015 183.077 403.418 171.068 410.398C167.317 412.553 159.09 416.145 154.711 416.568C141.496 417.843 127.009 417.105 113.71 417.205C108.892 417.243 95.1365 417.678 91.501 416.69C90.779 415.608 91.0337 397.243 91.043 395.12C91.2612 373.868 91.3525 352.615 91.3167 331.363C91.2957 320.545 91.179 309.703 91.6332 298.888C91.6557 298.353 91.8395 298.363 92.2255 298.115C93.9628 298.4 108.216 312.96 110.097 315.045C111.083 319.958 110.517 324.223 110.578 329.213C110.757 343.775 110.484 358.33 110.538 372.885C110.544 374.473 110.499 377.283 110.913 378.653C110.906 381.243 110.453 396.558 111.19 397.418C117.497 398.378 126.519 397.54 133.005 397.778C145.73 398.243 156.65 398.69 166.585 389.4C173.133 383.408 177.49 374.41 177.753 365.405C178.174 350.95 168.842 342.86 159.782 333.775L138.624 312.845L94.4072 269.343C83.1645 258.323 70.0295 245.69 59.2035 234.302C59.6942 239.475 59.339 249.175 59.3312 254.71L59.3315 291.905L59.3867 325.99C59.4373 333.635 59.664 343.885 59.0835 351.368L58.944 351.28C55.4307 349.023 52.0042 345.265 49.0328 342.275C47.1693 340.403 40.3693 334.613 40.2058 332.125C39.832 326.435 39.9943 320.37 39.986 314.648L40.045 279.235L40.0445 225.88C40.024 213.498 39.8168 201.048 40.2955 188.685Z" fill="white"/>
<path d="M92.5805 133.476C105.257 133.699 118.262 133.278 130.958 133.455C137.57 133.547 145.472 133.022 151.861 134.13C165.616 136.618 177.802 144.508 185.702 156.039C193.027 166.511 196.861 181.729 194.455 194.333C191.306 210.833 183.653 221.369 170.103 230.748C167.961 229.195 156.881 218.782 156.246 216.872C156.935 215.196 160.839 213.552 162.379 212.3C178.119 199.529 179.97 176.906 165.469 162.377C155.398 152.286 145.697 152.781 132.556 152.754C125.608 152.718 118.66 152.761 111.713 152.882C112.176 156.173 111.705 159.147 111.766 162.454C111.997 174.945 111.6 187.459 111.622 199.952C111.624 201.002 111.817 201.774 112.587 202.537C121.716 212.003 131.223 221.095 140.608 230.307L179.643 269.147L214.102 303.415C218.111 307.405 223.441 313.28 227.389 316.85L227.259 310.513C227.704 272.795 226.87 234.763 227.371 197.027C227.384 196.116 227.405 196.161 227.923 195.66C227.983 195.662 228.045 195.657 228.104 195.667C229.974 195.983 245.275 211.57 246.981 213.907C247.373 218.371 247.087 225.77 247.071 230.516L246.803 266.02L246.789 325.253C246.802 329.368 247.455 360.088 246.155 361.703C243.439 361.363 217.493 334.297 213.484 330.392C201.632 318.77 189.87 307.058 178.199 295.255L115.637 232.951L101.635 219.113C99.9585 217.481 92.652 211.099 92.3518 208.975C91.7383 204.638 91.9658 199.083 91.9885 194.602L92.076 173.166L92.0793 148.55C92.0798 145.538 91.9343 136.053 92.5805 133.476Z" fill="white"/>
<path d="M110.097 315.045C110.619 315.608 111.037 316.118 111.088 316.91C111.494 323.193 111.241 330.003 111.22 336.305C111.227 350.423 111.125 364.538 110.913 378.653C110.499 377.283 110.544 374.473 110.538 372.885C110.484 358.33 110.757 343.775 110.578 329.213C110.517 324.223 111.083 319.958 110.097 315.045Z" fill="white" fill-opacity="0.972549"/>
</svg>
